<?xml version="1.0" standalone="no"?><!DOCTYPE svg PUBLIC "-//W3C//DTD SVG 1.1//EN" "http://www.w3.org/Graphics/SVG/1.1/DTD/svg11.dtd"><svg class="icon" width="200px" height="200.00px" viewBox="0 0 1024 1024" version="1.1" xmlns="http://www.w3.org/2000/svg"><path fill="#333333" d="M720 464H560V304a48 48 0 1 0-96 0v160H304a48 48 0 1 0 0 96h160v160a48 48 0 1 0 96 0V560h160a48 48 0 1 0 0-96zM512 0C229.232 0 0 229.232 0 512s229.232 512 512 512 512-229.232 512-512S794.768 0 512 0z m0 928C282.256 928 96 741.744 96 512 96 282.24 282.256 96 512 96s416 186.256 416 416-186.256 416-416 416z"  /></svg>