<?xml version="1.0" standalone="no"?><!DOCTYPE svg PUBLIC "-//W3C//DTD SVG 1.1//EN" "http://www.w3.org/Graphics/SVG/1.1/DTD/svg11.dtd"><svg class="icon" width="200px" height="200.00px" viewBox="0 0 1024 1024" version="1.1" xmlns="http://www.w3.org/2000/svg"><path fill="#333333" d="M640 734.057143h-84.685714V457.142857c0-5.028571-4.114286-9.142857-9.142857-9.142857h-68.571429c-5.028571 0-9.142857 4.114286-9.142857 9.142857v276.914286H384c-7.657143 0-11.885714 8.8-7.2 14.742857l128 161.942857a9.142857 9.142857 0 0 0 14.4 0l128-161.942857c4.685714-5.942857 0.457143-14.742857-7.2-14.742857z"  /><path fill="#333333" d="M854.171429 345.942857C801.828571 207.885714 668.457143 109.714286 512.228571 109.714286S222.628571 207.771429 170.285714 345.828571C72.342857 371.542857 0 460.8 0 566.857143c0 126.285714 102.285714 228.571429 228.457143 228.571428H274.285714c5.028571 0 9.142857-4.114286 9.142857-9.142857v-68.571428c0-5.028571-4.114286-9.142857-9.142857-9.142857h-45.828571c-38.514286 0-74.742857-15.314286-101.714286-43.085715-26.857143-27.657143-41.142857-64.914286-39.885714-103.542857 1.028571-30.171429 11.314286-58.514286 29.942857-82.4 19.085714-24.342857 45.828571-42.057143 75.542857-49.942857l43.314286-11.314286 15.885714-41.828571c9.828571-26.057143 23.542857-50.4 40.8-72.457143a280.685714 280.685714 0 0 1 59.885714-57.028571c46.971429-33.028571 102.285714-50.514286 160-50.514286s113.028571 17.485714 160 50.514286c22.742857 16 42.857143 35.2 59.885715 57.028571 17.257143 22.057143 30.971429 46.514286 40.8 72.457143l15.771428 41.714286 43.2 11.428571C893.828571 446.285714 937.142857 502.628571 937.142857 566.857143c0 37.828571-14.742857 73.485714-41.485714 100.228571a140.651429 140.651429 0 0 1-100.114286 41.485715H749.714286c-5.028571 0-9.142857 4.114286-9.142857 9.142857v68.571428c0 5.028571 4.114286 9.142857 9.142857 9.142857h45.828571C921.714286 795.428571 1024 693.142857 1024 566.857143c0-105.942857-72.114286-195.085714-169.828571-220.914286z"  /></svg>