<?xml version="1.0" standalone="no"?><!DOCTYPE svg PUBLIC "-//W3C//DTD SVG 1.1//EN" "http://www.w3.org/Graphics/SVG/1.1/DTD/svg11.dtd"><svg class="icon" width="200px" height="200.00px" viewBox="0 0 1024 1024" version="1.1" xmlns="http://www.w3.org/2000/svg"><path fill="#333333" d="M947.23584 972.8H25.63584a25.6 25.6 0 0 1-22.3232-38.1952l460.8-819.2a25.6512 25.6512 0 0 1 44.6464 0l460.8 819.2A25.7536 25.7536 0 0 1 947.23584 972.8zM69.41184 921.6h834.048L486.43584 180.224 69.41184 921.6z"  /><path fill="#333333" d="M486.43584 716.8a25.6 25.6 0 0 1-25.6-25.6v-256a25.6 25.6 0 0 1 51.2 0v256a25.6 25.6 0 0 1-25.6 25.6zM486.43584 870.4a25.6 25.6 0 0 1-25.6-25.6v-51.2a25.6 25.6 0 0 1 51.2 0v51.2a25.6 25.6 0 0 1-25.6 25.6z"  /></svg>